<svg class="svg-icon" style="width: 1.072265625em; height: 1em;vertical-align: middle;fill: currentColor;overflow: hidden;" viewBox="0 0 1098 1024" version="1.1" xmlns="http://www.w3.org/2000/svg"><path d="M548.571429 0l548.571429 219.428571 0 73.142857-73.142857 0q0 14.848-11.702857 25.746286t-27.721143 10.825143l-872.009143 0q-16.018286 0-27.721143-10.825143t-11.702857-25.746286l-73.142857 0 0-73.142857zM146.285714 365.714286l146.285714 0 0 438.857143 73.142857 0 0-438.857143 146.285714 0 0 438.857143 73.142857 0 0-438.857143 146.285714 0 0 438.857143 73.142857 0 0-438.857143 146.285714 0 0 438.857143 33.718857 0q16.018286 0 27.721143 10.825143t11.702857 25.746286l0 36.571429-950.857143 0 0-36.571429q0-14.848 11.702857-25.746286t27.721143-10.825143l33.718857 0 0-438.857143zM1057.718857 914.285714q16.018286 0 27.721143 10.825143t11.702857 25.746286l0 73.142857-1097.142857 0 0-73.142857q0-14.848 11.702857-25.746286t27.721143-10.825143l1018.294857 0z"  /></svg>