<svg version="1.0" xmlns="http://www.w3.org/2000/svg"
 width="48.000000pt" height="48.000000pt" viewBox="0 0 48.000000 48.000000"
 preserveAspectRatio="xMidYMid meet">

<g transform="translate(0.000000,48.000000) scale(0.100000,-0.100000)"
fill="#182449" stroke="none">
<path d="M0 240 l0 -240 240 0 240 0 0 240 0 240 -240 0 -240 0 0 -240z m322
133 c42 -23 71 -46 74 -58 3 -11 4 -53 2 -94 l-3 -74 -77 -41 -78 -41 -77 41
-78 41 -3 84 c-1 46 1 89 5 95 11 15 134 84 152 84 7 0 45 -17 83 -37z"/>
</g>
</svg>
