<svg width="1080" height="1080" viewBox="0 0 1080 1080" fill="none" xmlns="http://www.w3.org/2000/svg">
<rect width="1080" height="1080" rx="540" fill="#26272B"/>
<path fill-rule="evenodd" clip-rule="evenodd" d="M460.961 348.755C433.404 329.585 400.456 320 362.116 320C323.775 320 290.827 329.585 263.27 348.755C235.713 367.526 214.945 393.485 200.967 426.633C186.989 459.782 180 497.722 180 540.456C180 583.189 186.989 621.13 200.967 654.278C214.945 687.426 235.713 713.585 263.27 732.755C290.827 751.526 323.775 760.911 362.116 760.911C400.456 760.911 433.404 751.526 460.961 732.755C488.518 713.585 509.286 687.426 523.264 654.278C537.242 621.13 544.231 583.189 544.231 540.456C544.231 497.722 537.242 459.782 523.264 426.633C509.286 393.485 488.518 367.526 460.961 348.755ZM414.009 422.583C400.621 408.51 383.323 401.473 362.116 401.473C333.76 401.473 312.194 414.053 297.417 439.214C283.039 464.375 275.85 498.122 275.85 540.456C275.85 567.032 278.683 590.224 284.349 610.032L414.009 422.583ZM309.841 658.28C323.459 672.386 340.884 679.439 362.116 679.439C390.471 679.439 411.838 666.858 426.216 641.698C440.992 616.537 448.381 582.79 448.381 540.456C448.381 513.799 445.451 490.547 439.592 470.699L309.841 658.28Z" fill="#FCFCFC"/>
<path d="M657.978 585.985L545.354 751.326H653.185L705.903 657.872C709.897 651.482 712.293 643.095 713.092 632.712C713.491 628.718 714.29 625.723 715.488 623.726C716.686 621.329 719.082 620.131 722.677 620.131C728.268 620.131 731.463 623.726 732.262 630.915V632.712C733.061 643.095 735.457 651.482 739.451 657.872L792.168 751.326H900L787.376 585.985L890.415 435.02H782.583L739.451 513.498C734.658 521.885 732.262 530.272 732.262 538.659C732.262 542.253 731.463 545.248 729.866 547.645C728.667 550.041 726.271 551.239 722.677 551.239C719.082 551.239 716.487 550.041 714.889 547.645C713.691 545.248 713.092 542.253 713.092 538.659C713.092 530.272 710.696 521.885 705.903 513.498L662.77 435.02H554.939L657.978 585.985Z" fill="#FCFCFC"/>
</svg>
