<svg width="128" height="128" viewBox="0 0 128 128" fill="none" xmlns="http://www.w3.org/2000/svg">
<path d="M60.4655 86.7788L22.5345 95.5599C21.151 95.9065 20.1134 97.293 20.1134 98.6794V124.792C20.1134 126.987 21.8428 128.373 24.0333 127.911L76.9522 115.664C79.1427 115.202 80.0651 113.122 79.1427 111.158L69.5735 91.4004C68.0747 88.2808 69.5735 85.0457 72.917 84.3525L107.504 76.0336C109.926 75.4559 112.001 72.914 112.001 70.3721V46.2242C112.001 44.0289 110.271 42.5269 108.081 43.1046L58.1596 55.0052C55.0468 55.6985 53.6633 58.7025 55.0468 61.591L63.8089 79.7308C65.3077 82.8504 63.8089 85.97 60.4655 86.7788Z" fill="white"/>
<path d="M35.449 21.4993L45.364 41.8344C46.6322 44.4918 45.364 47.2648 42.4817 47.8425L24.1504 52.1175C21.8445 52.6952 19.9999 55.006 19.9999 57.3168V79.1539C19.9999 82.8512 22.9975 85.162 26.5715 84.3532L43.6347 80.4248C45.9405 79.9627 47.7852 77.5363 47.7852 75.2255L47.9005 52.8107C47.9005 49.6911 50.4369 46.5715 53.4345 45.8783L109.351 32.4756C110.734 32.129 111.772 30.7425 111.772 29.356V3.24394C111.772 1.04868 110.043 -0.453347 107.852 0.124354L37.6395 16.9932C35.449 17.4554 34.5266 19.5351 35.449 21.4993Z" fill="white"/>
</svg>
