<?xml version="1.0" standalone="no"?>
<!DOCTYPE svg PUBLIC "-//W3C//DTD SVG 20010904//EN"
 "http://www.w3.org/TR/2001/REC-SVG-20010904/DTD/svg10.dtd">
<svg version="1.0" xmlns="http://www.w3.org/2000/svg"
 width="1024.000000pt" height="1024.000000pt" viewBox="0 0 1024.000000 1024.000000"
 preserveAspectRatio="xMidYMid meet">

<g transform="translate(0.000000,1024.000000) scale(0.100000,-0.100000)"
fill="#6851FF" stroke="none">
<path d="M5064 10173 c-335 -395 -886 -937 -1381 -1357 -51 -43 -93 -84 -93
-91 0 -8 16 -64 36 -127 286 -911 462 -1900 514 -2898 13 -252 13 -909 0
-1160 -54 -1027 -226 -1980 -533 -2959 l-23 -75 140 -119 c442 -374 928 -849
1290 -1262 53 -60 100 -111 104 -113 4 -1 30 24 57 55 193 225 586 633 841
875 125 118 380 345 542 482 50 43 92 84 92 91 0 8 -16 64 -36 127 -287 913
-462 1898 -514 2898 -13 250 -13 909 0 1155 42 793 150 1522 336 2269 44 177
150 550 197 695 l24 74 -131 111 c-441 373 -897 816 -1267 1234 -72 81 -134
148 -138 150 -4 1 -30 -23 -57 -55z"/>
<path d="M2490 7926 c-25 -23 -385 -248 -590 -368 -344 -202 -796 -439 -1141
-598 l-116 -53 29 -91 c98 -309 179 -715 225 -1126 22 -198 25 -882 5 -1090
-39 -402 -129 -864 -230 -1178 l-29 -90 136 -62 c530 -245 1205 -619 1643
-911 71 -48 87 -55 92 -42 25 63 133 589 181 873 253 1513 205 3076 -141 4570
-42 180 -44 185 -64 166z"/>
<path d="M7721 7907 c-14 -45 -83 -361 -120 -547 -210 -1062 -268 -2241 -166
-3330 48 -511 141 -1084 251 -1550 44 -187 43 -184 62 -167 31 26 395 253 592
369 344 202 796 439 1141 598 l116 53 -29 91 c-100 317 -178 707 -225 1126
-22 198 -25 893 -5 1095 42 409 130 862 230 1173 l29 90 -136 62 c-530 245
-1205 619 -1643 912 l-87 58 -10 -33z"/>
</g>
</svg>
