<svg xmlns="http://www.w3.org/2000/svg" data-name="Layer 1" width="731.7" height="436.4"
  viewBox="0 0 731.66157 436.37988" xmlns:xlink="http://www.w3.org/1999/xlink">
  <path
    d="M 322.2 528.7 a 26.1 26.1 0 0 0 -0.8 -19 c -0.3 -0.6 0.7 -1 0.9 -0.4 a 27.1 27.1 0 0 1 0.8 19.8 c -0.2 0.6 -1.1 0.2 -0.9 -0.4 Z"
    transform="translate(-234.2,-231.8)" fill="#ffffff" />
  <path
    d="M 871.5 246.8 h -143.8 v 9.3 a 2 2 0 0 0 0.5 1.3 c -0.3 7.2 -0.5 16.5 -0.5 26.5 v 247.3 c 0 23.2 0.9 42 2.1 42 h 139.6 c 1.1 0 2.1 -18.9 2.1 -42 v -247.3 c 0 -10 -0.2 -19.3 -0.5 -26.5 a 2 2 0 0 0 0.5 -1.3 Z"
    transform="translate(-234.2,-231.8)" fill="#ffffff" />
  <path
    d="M 869.4 574.2 H 729.8 c -1.1 0 -1.8 0 -2.5 -13.3 c -0.4 -8 -0.6 -18.5 -0.6 -29.8 V 283.9 c 0 -9.7 0.2 -19.1 0.5 -26.5 c 0.2 -4.5 0.4 -8 0.6 -10.6 c 0.5 -5.1 0.9 -5.9 2 -5.9 h 139.6 c 1.1 0 1.5 0.9 2 5.9 c 0.2 2.6 0.4 6.2 0.6 10.6 l 0 0 c 0.3 7.4 0.5 16.8 0.5 26.5 V 531.1 c 0 11.2 -0.2 21.8 -0.6 29.8 C 871.2 574.2 870.5 574.2 869.4 574.2 Z m -139.1 -2 H 868.9 c 0.7 -2.7 1.6 -17.6 1.6 -41 V 283.9 c 0 -9.7 -0.2 -19.1 -0.5 -26.4 h 0 c -0.2 -4.4 -0.4 -7.9 -0.6 -10.5 a 28.9 28.9 0 0 0 -0.6 -4.1 H 730.4 a 28.9 28.9 0 0 0 -0.6 4.1 c -0.2 2.6 -0.4 6.1 -0.6 10.5 c -0.3 7.4 -0.5 16.8 -0.5 26.4 V 531.1 C 728.7 554.6 729.6 569.5 730.3 572.2 Z"
    transform="translate(-234.2,-231.8)" fill="#e4e4e4" />
  <path
    d="M 869.4 241.8 H 729.8 a 2.1 2.1 0 0 0 -2.1 2.1 v 12.2 a 2 2 0 0 0 0.5 1.3 a 2.1 2.1 0 0 0 1.6 0.8 h 139.6 a 2.1 2.1 0 0 0 1.6 -0.8 a 2 2 0 0 0 0.5 -1.3 v -12.2 A 2.1 2.1 0 0 0 869.4 241.8 Z"
    transform="translate(-234.2,-231.8)" fill="#cacaca" />
  <circle data-name="Ellipse 90" id="b800b2fc-3bcc-4a40-9972-a80335d602c8" cx="505.6" cy="17.6" r="2.9"
   
    fill="#ffffff" />
  <circle data-name="Ellipse 91" id="fa63cc97-e384-451c-9b8c-3b6845b8b0f6" cx="516.7" cy="17.6" r="2.9"
   
    fill="#ffffff" />
  <circle data-name="Ellipse 92" id="beaeadfc-8efd-4e6c-adaf-945ac9d4d623" cx="527.9" cy="17.6" r="2.9"
   
    fill="#ffffff" />
  <path transform="translate(-234.2,-231.8)" d="M 858.5 245.4 H 845.6 a 1 1 0 0 0 -0.9 0.9 a 0.8 0.8 0 0 0 0.1 0.4 a 0.9 0.9 0 0 0 0.8 0.5 h 12.9 a 0.9 0.9 0 0 0 0.9 -0.5 a 0.9 0.9 0 0 0 0.1 -0.4 A 0.9 0.9 0 0 0 858.5 245.4 Z"
   
    fill="#ffffff" />
  <path transform="translate(-234.2,-231.8)" d="M 858.5 249 H 845.6 a 0.9 0.9 0 0 0 0 1.9 h 12.9 a 0.9 0.9 0 1 0 0 -1.9 Z"
   
    fill="#ffffff" />
  <path transform="translate(-234.2,-231.8)" d="M 858.5 252.6 H 845.6 a 0.9 0.9 0 0 0 0 1.9 h 12.9 a 0.9 0.9 0 1 0 0 -1.9 Z"
   
    fill="#ffffff" />
  <path transform="translate(-234.2,-231.8)" d="M 813.5 284.8 H 787.1 a 5 5 0 0 0 -5 5 v 22.9 a 5 5 0 0 0 5 5 h 26.4 a 5 5 0 0 0 5 -5 v -22.9 A 5 5 0 0 0 813.5 284.8 Z"
   
    fill="#0090ff" />
  <path transform="translate(-234.2,-231.8)" d="M 846.3 332.7 h -92.1 a 2.3 2.3 0 1 0 0 4.5 h 92.1 a 2.3 2.3 0 1 0 0 -4.5 Z"
   
    fill="#e4e4e4" />
  <path transform="translate(-234.2,-231.8)" d="M 789.2 343.3 h -35 a 2.3 2.3 0 1 0 0 4.5 h 35 a 2.3 2.3 0 1 0 0 -4.5 Z"
   
    fill="#e4e4e4" />
  <path transform="translate(-234.2,-231.8)" d="M 813.5 383.8 H 787.1 a 5 5 0 0 0 -5 5 v 22.9 a 5 5 0 0 0 5 5 h 26.4 a 5 5 0 0 0 5 -5 v -22.9 A 5 5 0 0 0 813.5 383.8 Z"
   
    fill="#0090ff" />
  <path transform="translate(-234.2,-231.8)" d="M 846.3 431.7 h -92.1 a 2.3 2.3 0 1 0 0 4.5 h 92.1 a 2.3 2.3 0 1 0 0 -4.5 Z"
   
    fill="#e4e4e4" />
  <path transform="translate(-234.2,-231.8)" d="M 789.2 442.3 h -35 a 2.3 2.3 0 1 0 0 4.5 h 35 a 2.3 2.3 0 1 0 0 -4.5 Z"
   
    fill="#e4e4e4" />
  <path transform="translate(-234.2,-231.8)" d="M 813.5 482.8 H 787.1 a 5 5 0 0 0 -5 5 v 22.9 a 5 5 0 0 0 5 5 h 26.4 a 5 5 0 0 0 5 -5 v -22.9 A 5 5 0 0 0 813.5 482.8 Z"
   
    fill="#0090ff" />
  <path transform="translate(-234.2,-231.8)" d="M 846.3 530.7 h -92.1 a 2.3 2.3 0 1 0 0 4.5 h 92.1 a 2.3 2.3 0 1 0 0 -4.5 Z"
   
    fill="#e4e4e4" />
  <path transform="translate(-234.2,-231.8)" d="M 789.2 541.3 h -35 a 2.3 2.3 0 1 0 0 4.5 h 35 a 2.3 2.3 0 1 0 0 -4.5 Z"
   
    fill="#e4e4e4" />
  <path transform="translate(-234.2,-231.8)" d="M 688.5 234.9 a 2.1 2.1 0 0 0 -2.1 -2.1 H 316.8 a 2.1 2.1 0 0 0 -2.1 2.1 v 12.2 a 2 2 0 0 0 0.5 1.4 c -0.3 8.3 -0.5 19.2 -0.5 31.1 v 274.9 c 0 25.8 0.9 46.7 2.1 46.7 h 369.6 c 1.1 0 2.1 -21 2.1 -46.7 v -274.9 c 0 -11.9 -0.2 -22.8 -0.5 -31.1 a 2 2 0 0 0 0.5 -1.4 Z"
   
    fill="#ffffff" />
  <path transform="translate(-234.2,-231.8)" d="M 686.4 602.2 H 316.8 c -1.1 0 -1.8 0 -2.5 -14.7 c -0.4 -8.9 -0.6 -20.6 -0.6 -33.1 V 279.5 c 0 -11.5 0.2 -22.6 0.5 -31.1 c 0.7 -16.6 1.4 -16.6 2.5 -16.6 h 369.6 c 1.1 0 1.9 0 2.5 16.6 h 0 c 0.3 8.6 0.5 19.6 0.5 31.1 V 554.4 c 0 12.5 -0.2 24.2 -0.6 33.1 C 688.2 602.2 687.6 602.2 686.4 602.2 Z m -369.1 -2 H 685.8 c 0.8 -3.1 1.7 -20.7 1.7 -45.7 V 279.5 c 0 -11.5 -0.2 -22.5 -0.5 -31.1 v 0 c -0.4 -10.5 -0.9 -13.7 -1.1 -14.7 H 317.4 c -0.2 1 -0.7 4.2 -1.1 14.7 c -0.3 8.6 -0.5 19.6 -0.5 31.1 V 554.4 C 315.7 579.4 316.5 597.1 317.4 600.2 Z"
   
    fill="#e4e4e4" />
  <path transform="translate(-234.2,-231.8)" d="M 686.4 232.8 H 316.8 a 2.1 2.1 0 0 0 -2.1 2.1 v 12.2 a 2 2 0 0 0 0.5 1.4 a 2.1 2.1 0 0 0 1.5 0.7 h 369.6 a 2.1 2.1 0 0 0 1.5 -0.7 a 2 2 0 0 0 0.5 -1.4 v -12.2 A 2.1 2.1 0 0 0 686.4 232.8 Z"
   
    fill="#cacaca" />
  <circle data-name="Ellipse 90" id="b7005a6f-2f7f-4001-b097-d8b6c117468f" cx="92.6" cy="8.6" r="2.9"
   
    fill="#ffffff" />
  <circle data-name="Ellipse 91" id="a0adf4f5-8105-4330-a35a-c3adb8f4e7bc" cx="103.7" cy="8.6" r="2.9"
    fill="#ffffff" />
  <circle data-name="Ellipse 92" id="a64b73a5-7207-44c1-bcaf-f99ab7b9c6dc" cx="114.9" cy="8.6" r="2.9"
    fill="#ffffff" />
  <path transform="translate(-234.2,-231.8)" d="M 675.5 236.4 H 662.6 a 0.9 0.9 0 0 0 0 1.9 h 12.9 a 0.9 0.9 0 1 0 0 -1.9 Z"
    fill="#ffffff" />
  <path transform="translate(-234.2,-231.8)" d="M 675.5 240 H 662.6 a 0.9 0.9 0 0 0 0 1.9 h 12.9 a 0.9 0.9 0 1 0 0 -1.9 Z"
   
    fill="#ffffff" />
  <path transform="translate(-234.2,-231.8)" d="M 675.5 243.6 H 662.6 a 0.9 0.9 0 0 0 0 1.9 h 12.9 a 0.9 0.9 0 1 0 0 -1.9 Z"
    fill="#ffffff" />
  <path transform="translate(-234.2,-231.8)" d="M 436.3 293.8 H 393 a 8.2 8.2 0 0 0 -8.2 8.2 v 37.5 a 8.2 8.2 0 0 0 8.2 8.2 h 43.3 a 8.2 8.2 0 0 0 8.2 -8.2 V 302 A 8.2 8.2 0 0 0 436.3 293.8 Z"
    fill="#0090ff" />
  <path transform="translate(-234.2,-231.8)" d="M 614.7 308.3 H 463.9 a 3.7 3.7 0 0 0 0 7.4 H 614.7 a 3.7 3.7 0 0 0 0 -7.4 Z"
   
    fill="#e4e4e4" />
  <path transform="translate(-234.2,-231.8)" d="M 521.2 325.7 h -57.3 a 3.7 3.7 0 0 0 0 7.4 h 57.3 a 3.7 3.7 0 0 0 0 -7.4 Z"
    fill="#e4e4e4" />
  <path transform="translate(-234.2,-231.8)" d="M 436.3 393.8 H 393 a 8.2 8.2 0 0 0 -8.2 8.2 v 37.5 a 8.2 8.2 0 0 0 8.2 8.2 h 43.3 a 8.2 8.2 0 0 0 8.2 -8.2 V 402 A 8.2 8.2 0 0 0 436.3 393.8 Z"
    fill="#0090ff" />
  <path transform="translate(-234.2,-231.8)" d="M 614.7 408.3 H 463.9 a 3.7 3.7 0 0 0 0 7.4 H 614.7 a 3.7 3.7 0 0 0 0 -7.4 Z"
   
    fill="#e4e4e4" />
  <path transform="translate(-234.2,-231.8)" d="M 521.2 425.7 h -57.3 a 3.7 3.7 0 0 0 0 7.4 h 57.3 a 3.7 3.7 0 0 0 0 -7.4 Z"
    fill="#e4e4e4" />
  <path transform="translate(-234.2,-231.8)" d="M 436.3 493.8 H 393 a 8.2 8.2 0 0 0 -8.2 8.2 v 37.5 a 8.2 8.2 0 0 0 8.2 8.2 h 43.3 a 8.2 8.2 0 0 0 8.2 -8.2 V 502 A 8.2 8.2 0 0 0 436.3 493.8 Z"
    fill="#0090ff" />
  <path transform="translate(-234.2,-231.8)" d="M 614.7 508.3 H 463.9 a 3.7 3.7 0 0 0 0 7.4 H 614.7 a 3.7 3.7 0 0 0 0 -7.4 Z"
   
    fill="#e4e4e4" />
  <path transform="translate(-234.2,-231.8)" d="M 521.2 525.7 h -57.3 a 3.7 3.7 0 0 0 0 7.4 h 57.3 a 3.7 3.7 0 0 0 0 -7.4 Z"
    fill="#e4e4e4" />
  <path transform="translate(-234.2,-231.8)" d="M 752.4 667.2 H 504.8 c -1.1 0 -2.1 -17.5 -2.1 -39.1 v -230.1 c 0 -21.6 0.9 -39.1 2.1 -39.1 H 752.4 c 1.1 0 2.1 17.5 2.1 39.1 v 230.1 C 754.5 649.6 753.6 667.2 752.4 667.2 Z"
    fill="#ffffff" />
  <path transform="translate(-234.2,-231.8)" d="M 752.4 668.2 H 504.8 c -1 0 -1.8 0 -2.5 -12.4 c -0.4 -7.4 -0.6 -17.3 -0.6 -27.7 V 397.9 c 0 -10.5 0.2 -20.3 0.6 -27.7 c 0.7 -12.4 1.4 -12.4 2.5 -12.4 H 752.4 c 1 0 1.8 0 2.5 12.4 c 0.4 7.4 0.6 17.3 0.6 27.7 V 628.1 c 0 10.5 -0.2 20.3 -0.6 27.7 C 754.2 668.2 753.5 668.2 752.4 668.2 Z m -247.1 -2 h 246.5 c 0.7 -2.6 1.6 -16.4 1.6 -38.1 V 397.9 c 0 -21.7 -0.9 -35.5 -1.6 -38.1 h -246.5 c -0.7 2.6 -1.6 16.4 -1.6 38.1 V 628.1 C 503.7 649.8 504.6 663.6 505.3 666.2 Z"
   
    fill="#e4e4e4" />
  <path transform="translate(-234.2,-231.8)" d="M 752.4 375.1 H 504.8 a 2.1 2.1 0 0 1 -2.1 -2.1 V 360.9 a 2.1 2.1 0 0 1 2.1 -2.1 H 752.4 a 2.1 2.1 0 0 1 2.1 2.1 v 12.2 A 2.1 2.1 0 0 1 752.4 375.1 Z"
   
    fill="#cacaca" />
  <circle data-name="Ellipse 90" id="a9432236-99f6-4733-9920-e312ad95354d" cx="280.6" cy="134.6" r="2.9"
   
    fill="#ffffff" />
  <circle data-name="Ellipse 91" id="fc8d1cb9-e477-4d66-a241-a00170356ca4" cx="291.7" cy="134.6" r="2.9"
    fill="#ffffff" />
  <circle data-name="Ellipse 92" id="bc1189a4-69b8-41a6-80e2-1e52c3b8abfb" cx="302.9" cy="134.6" r="2.9"
    fill="#ffffff" />
  <path transform="translate(-234.2,-231.8)" d="M 741.5 364.4 H 728.7 a 1 1 0 0 1 0 -1.9 h 12.8 a 1 1 0 0 1 0 1.9 Z"
    fill="#ffffff" />
  <path transform="translate(-234.2,-231.8)" d="M 741.5 367.9 H 728.7 a 1 1 0 0 1 0 -1.9 h 12.8 a 1 1 0 1 1 0 1.9 Z"
    fill="#ffffff" />
  <path transform="translate(-234.2,-231.8)" d="M 741.5 371.5 H 728.7 a 1 1 0 0 1 0 -1.9 h 12.8 a 1 1 0 0 1 0 1.9 Z"
    fill="#ffffff" />
  <path transform="translate(-234.2,-231.8)" d="M 580.9 450.7 H 549.3 a 6 6 0 0 1 -6 -6 V 417.4 a 6 6 0 0 1 6 -6 h 31.6 a 6 6 0 0 1 6 6 V 444.8 A 6 6 0 0 1 580.9 450.7 Z"
    fill="#0090ff" />
  <path transform="translate(-234.2,-231.8)" d="M 711.2 427.4 H 601.1 a 2.7 2.7 0 0 1 0 -5.4 H 711.2 a 2.7 2.7 0 0 1 0 5.4 Z"
   
    fill="#e4e4e4" />
  <path transform="translate(-234.2,-231.8)" d="M 642.9 440.1 H 601.1 a 2.7 2.7 0 1 1 0 -5.4 h 41.8 a 2.7 2.7 0 1 1 0 5.4 Z"
    fill="#e4e4e4" />
  <path transform="translate(-234.2,-231.8)" d="M 580.9 531.7 H 549.3 a 6 6 0 0 1 -6 -6 V 498.4 a 6 6 0 0 1 6 -6 h 31.6 a 6 6 0 0 1 6 6 V 525.8 A 6 6 0 0 1 580.9 531.7 Z"
    fill="#0090ff" />
  <path transform="translate(-234.2,-231.8)" d="M 711.2 508.4 H 601.1 a 2.7 2.7 0 0 1 0 -5.4 H 711.2 a 2.7 2.7 0 0 1 0 5.4 Z"
   
    fill="#e4e4e4" />
  <path transform="translate(-234.2,-231.8)" d="M 642.9 521.1 H 601.1 a 2.7 2.7 0 1 1 0 -5.4 h 41.8 a 2.7 2.7 0 1 1 0 5.4 Z"
    fill="#e4e4e4" />
  <path transform="translate(-234.2,-231.8)" d="M 580.9 612.7 H 549.3 a 6 6 0 0 1 -6 -6 V 579.4 a 6 6 0 0 1 6 -6 h 31.6 a 6 6 0 0 1 6 6 V 606.8 A 6 6 0 0 1 580.9 612.7 Z"
    fill="#0090ff" />
  <path transform="translate(-234.2,-231.8)" d="M 711.2 589.4 H 601.1 a 2.7 2.7 0 1 1 0 -5.4 H 711.2 a 2.7 2.7 0 1 1 0 5.4 Z"
   
    fill="#e4e4e4" />
  <path transform="translate(-234.2,-231.8)" d="M 642.9 602.1 H 601.1 a 2.7 2.7 0 1 1 0 -5.4 h 41.8 a 2.7 2.7 0 1 1 0 5.4 Z"
    fill="#e4e4e4" />
</svg>