<svg width="470" height="97" viewBox="0 0 470 97" fill="none" xmlns="http://www.w3.org/2000/svg">
<rect width="469.824" height="96.984" rx="30" fill="#F4F4F5"/>
<path fill-rule="evenodd" clip-rule="evenodd" d="M384.889 24C388.947 24 392.435 25.0146 395.352 27.0437C398.269 29.0306 400.467 31.7783 401.946 35.287C403.426 38.7957 404.166 42.8117 404.166 47.335C404.166 51.8583 403.426 55.8743 401.946 59.383C400.467 62.8917 398.269 65.6606 395.352 67.6897C392.435 69.6766 388.947 70.67 384.889 70.67C380.831 70.67 377.343 69.6766 374.426 67.6897C371.509 65.6606 369.311 62.8917 367.832 59.383C366.352 55.8743 365.612 51.8583 365.612 47.335C365.612 42.8117 366.352 38.7957 367.832 35.287C369.311 31.7783 371.509 29.0306 374.426 27.0437C377.343 25.0146 380.831 24 384.889 24ZM384.889 32.6238C387.134 32.6238 388.965 33.3687 390.382 34.8583L376.658 54.6995C376.058 52.6029 375.758 50.148 375.758 47.335C375.758 42.854 376.519 39.2819 378.041 36.6187C379.605 33.9554 381.888 32.6238 384.889 32.6238ZM384.889 62.0462C382.642 62.0462 380.797 61.2997 379.356 59.8066L393.09 39.9513C393.71 42.0522 394.02 44.5134 394.02 47.335C394.02 51.816 393.238 55.3881 391.674 58.0513C390.152 60.7146 387.891 62.0462 384.889 62.0462Z" fill="#26272B"/>
<path d="M404.285 69.6554L416.206 52.1542L405.299 36.1748H416.713L421.279 44.4815C421.786 45.3693 422.04 46.257 422.04 47.1448C422.04 47.5252 422.103 47.8423 422.23 48.0959C422.399 48.3496 422.674 48.4764 423.054 48.4764C423.435 48.4764 423.688 48.3496 423.815 48.0959C423.984 47.8423 424.069 47.5252 424.069 47.1448C424.069 46.257 424.322 45.3693 424.83 44.4815L429.395 36.1748H440.809L429.902 52.1542L441.824 69.6554H430.41L424.83 59.7634C424.407 59.087 424.153 58.1993 424.069 57.1002V56.91C423.984 56.149 423.646 55.7686 423.054 55.7686C422.674 55.7686 422.42 55.8954 422.293 56.149C422.166 56.3604 422.082 56.6775 422.04 57.1002C421.955 58.1993 421.701 59.087 421.279 59.7634L415.699 69.6554H404.285Z" fill="#26272B"/>
<path fill-rule="evenodd" clip-rule="evenodd" d="M263.662 26H256.366V38.084C256.366 38.654 256.423 39.186 256.537 39.68C256.689 40.174 256.898 40.687 257.164 41.219C257.202 41.257 257.221 41.314 257.221 41.39C257.259 41.428 257.278 41.466 257.278 41.504C257.43 41.808 257.506 42.074 257.506 42.302C257.544 42.492 257.449 42.644 257.221 42.758C256.993 42.872 256.803 42.872 256.651 42.758C256.537 42.606 256.404 42.416 256.252 42.188C256.252 42.15 256.233 42.131 256.195 42.131V42.074C255.321 40.364 254.067 39.015 252.433 38.027C250.837 37.001 248.918 36.488 246.676 36.488C244.13 36.488 241.85 37.172 239.836 38.54C237.86 39.908 236.321 41.77 235.219 44.126C234.117 46.482 233.566 49.104 233.566 51.992C233.566 54.88 234.117 57.502 235.219 59.858C236.321 62.214 237.86 64.076 239.836 65.444C241.85 66.812 244.13 67.496 246.676 67.496C248.804 67.496 250.628 67.002 252.148 66.014C253.668 64.988 255.017 63.601 256.195 61.853L256.252 61.739C256.328 61.549 256.423 61.416 256.537 61.34C256.689 61.226 256.86 61.207 257.05 61.283C257.316 61.397 257.449 61.549 257.449 61.739C257.449 61.929 257.373 62.176 257.221 62.48L257.164 62.651C256.632 63.715 256.366 64.741 256.366 65.729V67.04H263.662V26ZM252.547 59.687C251.331 60.485 249.944 60.884 248.386 60.884C246.752 60.884 245.365 60.485 244.225 59.687C243.085 58.889 242.23 57.825 241.66 56.495C241.128 55.127 240.862 53.626 240.862 51.992C240.862 50.358 241.128 48.876 241.66 47.546C242.23 46.178 243.085 45.095 244.225 44.297C245.365 43.499 246.752 43.1 248.386 43.1C249.944 43.1 251.331 43.499 252.547 44.297C253.763 45.095 254.694 46.178 255.34 47.546C256.024 48.914 256.366 50.396 256.366 51.992C256.366 53.588 256.024 55.07 255.34 56.438C254.694 57.806 253.763 58.889 252.547 59.687Z" fill="#26272B"/>
<path fill-rule="evenodd" clip-rule="evenodd" d="M48.302 26.912C53.622 26.912 57.555 28.109 60.101 30.503C62.647 32.897 63.92 35.956 63.92 39.68C63.92 41.998 63.331 44.126 62.153 46.064C61.013 48.002 59.322 49.56 57.08 50.738C54.876 51.878 52.254 52.448 49.214 52.448H39.752V67.04H32V26.912H48.302ZM49.157 46.064C51.285 46.064 52.976 45.494 54.23 44.354C55.522 43.176 56.168 41.694 56.168 39.908C56.168 37.97 55.541 36.469 54.287 35.405C53.071 34.303 51.361 33.752 49.157 33.752H39.752V46.064H49.157Z" fill="#26272B"/>
<path fill-rule="evenodd" clip-rule="evenodd" d="M81.9333 36.488C84.9733 36.488 87.6333 37.172 89.9133 38.54C92.1933 39.908 93.9413 41.77 95.1573 44.126C96.3733 46.482 96.9813 49.104 96.9813 51.992C96.9813 54.88 96.3733 57.502 95.1573 59.858C93.9413 62.214 92.1933 64.076 89.9133 65.444C87.6333 66.812 84.9733 67.496 81.9333 67.496C78.8933 67.496 76.2333 66.812 73.9533 65.444C71.6733 64.076 69.9253 62.214 68.7093 59.858C67.4933 57.502 66.8853 54.88 66.8853 51.992C66.8853 49.104 67.4933 46.482 68.7093 44.126C69.9253 41.77 71.6733 39.908 73.9533 38.54C76.2333 37.172 78.8933 36.488 81.9333 36.488ZM81.9333 60.884C83.5293 60.884 84.9163 60.504 86.0943 59.744C87.2723 58.946 88.1653 57.882 88.7733 56.552C89.3813 55.184 89.6853 53.664 89.6853 51.992C89.6853 50.32 89.3813 48.819 88.7733 47.489C88.1653 46.121 87.2723 45.057 86.0943 44.297C84.9163 43.499 83.5293 43.1 81.9333 43.1C80.3373 43.1 78.9503 43.499 77.7723 44.297C76.5943 45.057 75.7013 46.121 75.0933 47.489C74.4853 48.819 74.1813 50.32 74.1813 51.992C74.1813 53.664 74.4853 55.184 75.0933 56.552C75.7013 57.882 76.5943 58.946 77.7723 59.744C78.9503 60.504 80.3373 60.884 81.9333 60.884Z" fill="#26272B"/>
<path d="M105.905 36.944H98.1525L106.817 67.04H116.393L120.44 47.831C120.63 46.843 120.725 45.646 120.725 44.24V43.784C120.725 43.556 120.763 43.366 120.839 43.214C120.953 43.024 121.143 42.929 121.409 42.929C121.675 42.929 121.846 43.024 121.922 43.214C122.036 43.366 122.093 43.556 122.093 43.784V44.24C122.093 45.646 122.188 46.843 122.378 47.831L126.425 67.04H136.001L144.665 36.944H136.913L132.182 57.692C131.992 58.604 131.897 59.668 131.897 60.884V61.34C131.897 61.568 131.84 61.777 131.726 61.967C131.65 62.119 131.479 62.195 131.213 62.195C130.947 62.195 130.757 62.119 130.643 61.967C130.567 61.777 130.529 61.568 130.529 61.34C130.529 59.744 130.434 58.528 130.244 57.692L125.741 36.944H117.077L112.574 57.692C112.384 58.528 112.289 59.744 112.289 61.34C112.289 61.568 112.232 61.777 112.118 61.967C112.042 62.119 111.871 62.195 111.605 62.195C111.339 62.195 111.149 62.119 111.035 61.967C110.959 61.777 110.921 61.568 110.921 61.34V60.884C110.921 59.668 110.826 58.604 110.636 57.692L105.905 36.944Z" fill="#26272B"/>
<path fill-rule="evenodd" clip-rule="evenodd" d="M153.852 57.065C153.377 56.1154 153.077 55.0324 152.951 53.816H174.828C174.942 52.942 174.999 52.201 174.999 51.593C174.999 48.135 174.315 45.285 172.947 43.043C171.617 40.763 169.869 39.11 167.703 38.084C165.575 37.02 163.276 36.488 160.806 36.488C157.766 36.488 155.106 37.134 152.826 38.426C150.584 39.68 148.855 41.485 147.639 43.841C146.423 46.159 145.815 48.876 145.815 51.992C145.815 54.994 146.404 57.673 147.582 60.029C148.76 62.347 150.489 64.171 152.769 65.501C155.049 66.831 157.766 67.496 160.92 67.496C163.504 67.496 165.727 67.04 167.589 66.128C169.489 65.178 170.99 63.886 172.092 62.252C173.232 60.618 174.03 58.718 174.486 56.552H167.076C166.62 57.996 165.898 59.117 164.91 59.915C163.922 60.713 162.611 61.112 160.977 61.112C159.305 61.112 157.861 60.77 156.645 60.086C155.429 59.364 154.498 58.357 153.852 57.065ZM165.765 44.183C166.905 45.361 167.551 46.9 167.703 48.8H153.248C153.549 47.4348 154.035 46.2378 154.707 45.209C155.923 43.347 158.032 42.416 161.034 42.416C163.048 42.416 164.625 43.005 165.765 44.183Z" fill="#26272B"/>
<path d="M186.909 43.271C186.795 43.385 186.662 43.423 186.51 43.385C186.244 43.347 186.092 43.233 186.054 43.043C186.016 42.815 186.054 42.53 186.168 42.188V42.131C186.206 42.131 186.225 42.112 186.225 42.074C186.795 40.934 187.08 39.775 187.08 38.597V36.944H179.784V67.04H187.08V53.987C187.08 51.365 187.403 49.294 188.049 47.774C188.733 46.254 189.854 45.19 191.412 44.582C193.008 43.936 195.212 43.708 198.024 43.898V36.488C195.668 36.488 193.806 36.716 192.438 37.172C191.07 37.628 190.025 38.293 189.303 39.167C188.581 40.041 187.878 41.257 187.194 42.815V42.872C187.118 42.986 187.023 43.119 186.909 43.271Z" fill="#26272B"/>
<path fill-rule="evenodd" clip-rule="evenodd" d="M208.122 57.065C207.647 56.1154 207.347 55.0324 207.221 53.816H229.098C229.212 52.942 229.269 52.201 229.269 51.593C229.269 48.135 228.585 45.285 227.217 43.043C225.887 40.763 224.139 39.11 221.973 38.084C219.845 37.02 217.546 36.488 215.076 36.488C212.036 36.488 209.376 37.134 207.096 38.426C204.854 39.68 203.125 41.485 201.909 43.841C200.693 46.159 200.085 48.876 200.085 51.992C200.085 54.994 200.674 57.673 201.852 60.029C203.03 62.347 204.759 64.171 207.039 65.501C209.319 66.831 212.036 67.496 215.19 67.496C217.774 67.496 219.997 67.04 221.859 66.128C223.759 65.178 225.26 63.886 226.362 62.252C227.502 60.618 228.3 58.718 228.756 56.552H221.346C220.89 57.996 220.168 59.117 219.18 59.915C218.192 60.713 216.881 61.112 215.247 61.112C213.575 61.112 212.131 60.77 210.915 60.086C209.699 59.364 208.768 58.357 208.122 57.065ZM220.035 44.183C221.175 45.361 221.821 46.9 221.973 48.8H207.518C207.819 47.4348 208.305 46.2378 208.977 45.209C210.193 43.347 212.302 42.416 215.304 42.416C217.318 42.416 218.895 43.005 220.035 44.183Z" fill="#26272B"/>
<path fill-rule="evenodd" clip-rule="evenodd" d="M295.175 38.084C295.175 38.654 295.099 39.186 294.947 39.68C294.833 40.174 294.643 40.687 294.377 41.219C294.339 41.257 294.32 41.295 294.32 41.333C294.32 41.371 294.301 41.409 294.263 41.447C294.111 41.789 294.016 42.074 293.978 42.302C293.978 42.492 294.092 42.644 294.32 42.758C294.548 42.872 294.719 42.872 294.833 42.758C294.985 42.606 295.137 42.416 295.289 42.188V42.131L295.346 42.074C296.334 40.364 297.607 39.015 299.165 38.027C300.761 37.001 302.661 36.488 304.865 36.488C307.411 36.488 309.672 37.172 311.648 38.54C313.662 39.908 315.22 41.77 316.322 44.126C317.424 46.482 317.975 49.104 317.975 51.992C317.975 54.88 317.424 57.502 316.322 59.858C315.22 62.214 313.662 64.076 311.648 65.444C309.672 66.812 307.411 67.496 304.865 67.496C302.699 67.496 300.799 67.002 299.165 66.014C297.569 64.988 296.296 63.601 295.346 61.853L295.289 61.739C295.213 61.549 295.099 61.416 294.947 61.34C294.833 61.226 294.681 61.207 294.491 61.283C294.225 61.397 294.092 61.549 294.092 61.739C294.092 61.929 294.168 62.176 294.32 62.48L294.377 62.651C294.909 63.715 295.175 64.741 295.175 65.729V67.04H287.879V26H295.175V38.084ZM303.155 60.884C304.789 60.884 306.176 60.485 307.316 59.687C308.456 58.889 309.292 57.825 309.824 56.495C310.394 55.127 310.679 53.626 310.679 51.992C310.679 50.358 310.394 48.876 309.824 47.546C309.292 46.178 308.456 45.095 307.316 44.297C306.176 43.499 304.789 43.1 303.155 43.1C301.597 43.1 300.21 43.499 298.994 44.297C297.778 45.095 296.828 46.178 296.144 47.546C295.498 48.914 295.175 50.396 295.175 51.992C295.175 53.588 295.498 55.07 296.144 56.438C296.828 57.806 297.778 58.889 298.994 59.687C300.21 60.485 301.597 60.884 303.155 60.884Z" fill="#26272B"/>
<path d="M327.356 36.944H319.604L331.346 67.439L330.719 69.263C330.529 69.833 330.32 70.27 330.092 70.574C329.864 70.878 329.579 71.087 329.237 71.201C328.895 71.353 328.42 71.467 327.812 71.543C327.546 71.581 327.242 71.6 326.9 71.6H322.226V77.984H327.698C329.446 77.984 330.947 77.737 332.201 77.243C333.455 76.749 334.538 75.951 335.45 74.849C336.362 73.747 337.16 72.303 337.844 70.517L350.612 36.944H342.86L336.419 56.381C336.153 57.179 335.982 58.091 335.906 59.117V59.801C335.906 60.105 335.849 60.352 335.735 60.542C335.659 60.694 335.488 60.77 335.222 60.77C334.956 60.77 334.766 60.675 334.652 60.485C334.576 60.295 334.538 60.067 334.538 59.801C334.538 59.117 334.5 58.509 334.424 57.977C334.386 57.445 334.272 56.913 334.082 56.381L327.356 36.944Z" fill="#26272B"/>
</svg>
