<svg width="470" height="97" viewBox="0 0 470 97" fill="none" xmlns="http://www.w3.org/2000/svg">
<rect x="0.0859375" width="469.824" height="96.984" rx="30" fill="white"/>
<path fill-rule="evenodd" clip-rule="evenodd" d="M384.975 24C389.033 24 392.521 25.0146 395.438 27.0437C398.355 29.0306 400.553 31.7783 402.032 35.287C403.512 38.7957 404.252 42.8117 404.252 47.335C404.252 51.8583 403.512 55.8743 402.032 59.383C400.553 62.8917 398.355 65.6606 395.438 67.6897C392.521 69.6766 389.033 70.67 384.975 70.67C380.917 70.67 377.429 69.6766 374.512 67.6897C371.595 65.6606 369.397 62.8917 367.918 59.383C366.438 55.8743 365.698 51.8583 365.698 47.335C365.698 42.8117 366.438 38.7957 367.918 35.287C369.397 31.7783 371.595 29.0306 374.512 27.0437C377.429 25.0146 380.917 24 384.975 24ZM384.975 32.6238C387.22 32.6238 389.051 33.3687 390.468 34.8583L376.744 54.6995C376.144 52.6029 375.844 50.148 375.844 47.335C375.844 42.854 376.605 39.2819 378.127 36.6187C379.691 33.9554 381.974 32.6238 384.975 32.6238ZM384.975 62.0462C382.728 62.0462 380.883 61.2997 379.442 59.8066L393.176 39.9513C393.796 42.0522 394.106 44.5134 394.106 47.335C394.106 51.816 393.324 55.3881 391.76 58.0513C390.238 60.7146 387.976 62.0462 384.975 62.0462Z" fill="#26272B"/>
<path d="M404.371 69.6554L416.292 52.1542L405.385 36.1748H416.799L421.365 44.4815C421.872 45.3693 422.126 46.257 422.126 47.1448C422.126 47.5252 422.189 47.8423 422.316 48.0959C422.485 48.3496 422.76 48.4764 423.14 48.4764C423.521 48.4764 423.774 48.3496 423.901 48.0959C424.07 47.8423 424.155 47.5252 424.155 47.1448C424.155 46.257 424.408 45.3693 424.916 44.4815L429.481 36.1748H440.895L429.988 52.1542L441.91 69.6554H430.496L424.916 59.7634C424.493 59.087 424.239 58.1993 424.155 57.1002V56.91C424.07 56.149 423.732 55.7686 423.14 55.7686C422.76 55.7686 422.506 55.8954 422.379 56.149C422.252 56.3604 422.168 56.6775 422.126 57.1002C422.041 58.1993 421.787 59.087 421.365 59.7634L415.784 69.6554H404.371Z" fill="#26272B"/>
<path fill-rule="evenodd" clip-rule="evenodd" d="M263.748 26H256.452V38.084C256.452 38.654 256.509 39.186 256.623 39.68C256.775 40.174 256.984 40.687 257.25 41.219C257.288 41.257 257.307 41.314 257.307 41.39C257.345 41.428 257.364 41.466 257.364 41.504C257.516 41.808 257.592 42.074 257.592 42.302C257.63 42.492 257.535 42.644 257.307 42.758C257.079 42.872 256.889 42.872 256.737 42.758C256.623 42.606 256.49 42.416 256.338 42.188C256.338 42.15 256.319 42.131 256.281 42.131V42.074C255.407 40.364 254.153 39.015 252.519 38.027C250.923 37.001 249.004 36.488 246.762 36.488C244.216 36.488 241.936 37.172 239.922 38.54C237.946 39.908 236.407 41.77 235.305 44.126C234.203 46.482 233.652 49.104 233.652 51.992C233.652 54.88 234.203 57.502 235.305 59.858C236.407 62.214 237.946 64.076 239.922 65.444C241.936 66.812 244.216 67.496 246.762 67.496C248.89 67.496 250.714 67.002 252.234 66.014C253.754 64.988 255.103 63.601 256.281 61.853L256.338 61.739C256.414 61.549 256.509 61.416 256.623 61.34C256.775 61.226 256.946 61.207 257.136 61.283C257.402 61.397 257.535 61.549 257.535 61.739C257.535 61.929 257.459 62.176 257.307 62.48L257.25 62.651C256.718 63.715 256.452 64.741 256.452 65.729V67.04H263.748V26ZM252.633 59.687C251.417 60.485 250.03 60.884 248.472 60.884C246.838 60.884 245.451 60.485 244.311 59.687C243.171 58.889 242.316 57.825 241.746 56.495C241.214 55.127 240.948 53.626 240.948 51.992C240.948 50.358 241.214 48.876 241.746 47.546C242.316 46.178 243.171 45.095 244.311 44.297C245.451 43.499 246.838 43.1 248.472 43.1C250.03 43.1 251.417 43.499 252.633 44.297C253.849 45.095 254.78 46.178 255.426 47.546C256.11 48.914 256.452 50.396 256.452 51.992C256.452 53.588 256.11 55.07 255.426 56.438C254.78 57.806 253.849 58.889 252.633 59.687Z" fill="#26272B"/>
<path fill-rule="evenodd" clip-rule="evenodd" d="M48.3879 26.912C53.7079 26.912 57.6409 28.109 60.1869 30.503C62.7329 32.897 64.0059 35.956 64.0059 39.68C64.0059 41.998 63.4169 44.126 62.2389 46.064C61.0989 48.002 59.4079 49.56 57.1659 50.738C54.9619 51.878 52.3399 52.448 49.2999 52.448H39.8379V67.04H32.0859V26.912H48.3879ZM49.2429 46.064C51.3709 46.064 53.0619 45.494 54.3159 44.354C55.6079 43.176 56.2539 41.694 56.2539 39.908C56.2539 37.97 55.6269 36.469 54.3729 35.405C53.1569 34.303 51.4469 33.752 49.2429 33.752H39.8379V46.064H49.2429Z" fill="#26272B"/>
<path fill-rule="evenodd" clip-rule="evenodd" d="M82.0193 36.488C85.0593 36.488 87.7193 37.172 89.9993 38.54C92.2793 39.908 94.0273 41.77 95.2433 44.126C96.4593 46.482 97.0673 49.104 97.0673 51.992C97.0673 54.88 96.4593 57.502 95.2433 59.858C94.0273 62.214 92.2793 64.076 89.9993 65.444C87.7193 66.812 85.0593 67.496 82.0193 67.496C78.9793 67.496 76.3193 66.812 74.0393 65.444C71.7593 64.076 70.0113 62.214 68.7953 59.858C67.5793 57.502 66.9713 54.88 66.9713 51.992C66.9713 49.104 67.5793 46.482 68.7953 44.126C70.0113 41.77 71.7593 39.908 74.0393 38.54C76.3193 37.172 78.9793 36.488 82.0193 36.488ZM82.0193 60.884C83.6153 60.884 85.0023 60.504 86.1803 59.744C87.3583 58.946 88.2513 57.882 88.8593 56.552C89.4673 55.184 89.7713 53.664 89.7713 51.992C89.7713 50.32 89.4673 48.819 88.8593 47.489C88.2513 46.121 87.3583 45.057 86.1803 44.297C85.0023 43.499 83.6153 43.1 82.0193 43.1C80.4233 43.1 79.0363 43.499 77.8583 44.297C76.6803 45.057 75.7873 46.121 75.1793 47.489C74.5713 48.819 74.2673 50.32 74.2673 51.992C74.2673 53.664 74.5713 55.184 75.1793 56.552C75.7873 57.882 76.6803 58.946 77.8583 59.744C79.0363 60.504 80.4233 60.884 82.0193 60.884Z" fill="#26272B"/>
<path d="M105.99 36.944H98.2384L106.902 67.04H116.478L120.525 47.831C120.715 46.843 120.81 45.646 120.81 44.24V43.784C120.81 43.556 120.848 43.366 120.924 43.214C121.038 43.024 121.228 42.929 121.494 42.929C121.76 42.929 121.931 43.024 122.007 43.214C122.121 43.366 122.178 43.556 122.178 43.784V44.24C122.178 45.646 122.273 46.843 122.463 47.831L126.51 67.04H136.086L144.75 36.944H136.998L132.267 57.692C132.077 58.604 131.982 59.668 131.982 60.884V61.34C131.982 61.568 131.925 61.777 131.811 61.967C131.735 62.119 131.564 62.195 131.298 62.195C131.032 62.195 130.842 62.119 130.728 61.967C130.652 61.777 130.614 61.568 130.614 61.34C130.614 59.744 130.519 58.528 130.329 57.692L125.826 36.944H117.162L112.659 57.692C112.469 58.528 112.374 59.744 112.374 61.34C112.374 61.568 112.317 61.777 112.203 61.967C112.127 62.119 111.956 62.195 111.69 62.195C111.424 62.195 111.234 62.119 111.12 61.967C111.044 61.777 111.006 61.568 111.006 61.34V60.884C111.006 59.668 110.911 58.604 110.721 57.692L105.99 36.944Z" fill="#26272B"/>
<path fill-rule="evenodd" clip-rule="evenodd" d="M153.938 57.065C153.463 56.1154 153.163 55.0324 153.037 53.816H174.914C175.028 52.942 175.085 52.201 175.085 51.593C175.085 48.135 174.401 45.285 173.033 43.043C171.703 40.763 169.955 39.11 167.789 38.084C165.661 37.02 163.362 36.488 160.892 36.488C157.852 36.488 155.192 37.134 152.912 38.426C150.67 39.68 148.941 41.485 147.725 43.841C146.509 46.159 145.901 48.876 145.901 51.992C145.901 54.994 146.49 57.673 147.668 60.029C148.846 62.347 150.575 64.171 152.855 65.501C155.135 66.831 157.852 67.496 161.006 67.496C163.59 67.496 165.813 67.04 167.675 66.128C169.575 65.178 171.076 63.886 172.178 62.252C173.318 60.618 174.116 58.718 174.572 56.552H167.162C166.706 57.996 165.984 59.117 164.996 59.915C164.008 60.713 162.697 61.112 161.063 61.112C159.391 61.112 157.947 60.77 156.731 60.086C155.515 59.364 154.584 58.357 153.938 57.065ZM165.851 44.183C166.991 45.361 167.637 46.9 167.789 48.8H153.334C153.635 47.4348 154.121 46.2378 154.793 45.209C156.009 43.347 158.118 42.416 161.12 42.416C163.134 42.416 164.711 43.005 165.851 44.183Z" fill="#26272B"/>
<path d="M186.995 43.271C186.881 43.385 186.748 43.423 186.596 43.385C186.33 43.347 186.178 43.233 186.14 43.043C186.102 42.815 186.14 42.53 186.254 42.188V42.131C186.292 42.131 186.311 42.112 186.311 42.074C186.881 40.934 187.166 39.775 187.166 38.597V36.944H179.87V67.04H187.166V53.987C187.166 51.365 187.489 49.294 188.135 47.774C188.819 46.254 189.94 45.19 191.498 44.582C193.094 43.936 195.298 43.708 198.11 43.898V36.488C195.754 36.488 193.892 36.716 192.524 37.172C191.156 37.628 190.111 38.293 189.389 39.167C188.667 40.041 187.964 41.257 187.28 42.815V42.872C187.204 42.986 187.109 43.119 186.995 43.271Z" fill="#26272B"/>
<path fill-rule="evenodd" clip-rule="evenodd" d="M208.208 57.065C207.733 56.1154 207.433 55.0324 207.307 53.816H229.184C229.298 52.942 229.355 52.201 229.355 51.593C229.355 48.135 228.671 45.285 227.303 43.043C225.973 40.763 224.225 39.11 222.059 38.084C219.931 37.02 217.632 36.488 215.162 36.488C212.122 36.488 209.462 37.134 207.182 38.426C204.94 39.68 203.211 41.485 201.995 43.841C200.779 46.159 200.171 48.876 200.171 51.992C200.171 54.994 200.76 57.673 201.938 60.029C203.116 62.347 204.845 64.171 207.125 65.501C209.405 66.831 212.122 67.496 215.276 67.496C217.86 67.496 220.083 67.04 221.945 66.128C223.845 65.178 225.346 63.886 226.448 62.252C227.588 60.618 228.386 58.718 228.842 56.552H221.432C220.976 57.996 220.254 59.117 219.266 59.915C218.278 60.713 216.967 61.112 215.333 61.112C213.661 61.112 212.217 60.77 211.001 60.086C209.785 59.364 208.854 58.357 208.208 57.065ZM220.121 44.183C221.261 45.361 221.907 46.9 222.059 48.8H207.604C207.905 47.4348 208.391 46.2378 209.063 45.209C210.279 43.347 212.388 42.416 215.39 42.416C217.404 42.416 218.981 43.005 220.121 44.183Z" fill="#26272B"/>
<path fill-rule="evenodd" clip-rule="evenodd" d="M295.261 38.084C295.261 38.654 295.185 39.186 295.033 39.68C294.919 40.174 294.729 40.687 294.463 41.219C294.425 41.257 294.406 41.295 294.406 41.333C294.406 41.371 294.387 41.409 294.349 41.447C294.197 41.789 294.102 42.074 294.064 42.302C294.064 42.492 294.178 42.644 294.406 42.758C294.634 42.872 294.805 42.872 294.919 42.758C295.071 42.606 295.223 42.416 295.375 42.188V42.131L295.432 42.074C296.42 40.364 297.693 39.015 299.251 38.027C300.847 37.001 302.747 36.488 304.951 36.488C307.497 36.488 309.758 37.172 311.734 38.54C313.748 39.908 315.306 41.77 316.408 44.126C317.51 46.482 318.061 49.104 318.061 51.992C318.061 54.88 317.51 57.502 316.408 59.858C315.306 62.214 313.748 64.076 311.734 65.444C309.758 66.812 307.497 67.496 304.951 67.496C302.785 67.496 300.885 67.002 299.251 66.014C297.655 64.988 296.382 63.601 295.432 61.853L295.375 61.739C295.299 61.549 295.185 61.416 295.033 61.34C294.919 61.226 294.767 61.207 294.577 61.283C294.311 61.397 294.178 61.549 294.178 61.739C294.178 61.929 294.254 62.176 294.406 62.48L294.463 62.651C294.995 63.715 295.261 64.741 295.261 65.729V67.04H287.965V26H295.261V38.084ZM303.241 60.884C304.875 60.884 306.262 60.485 307.402 59.687C308.542 58.889 309.378 57.825 309.91 56.495C310.48 55.127 310.765 53.626 310.765 51.992C310.765 50.358 310.48 48.876 309.91 47.546C309.378 46.178 308.542 45.095 307.402 44.297C306.262 43.499 304.875 43.1 303.241 43.1C301.683 43.1 300.296 43.499 299.08 44.297C297.864 45.095 296.914 46.178 296.23 47.546C295.584 48.914 295.261 50.396 295.261 51.992C295.261 53.588 295.584 55.07 296.23 56.438C296.914 57.806 297.864 58.889 299.08 59.687C300.296 60.485 301.683 60.884 303.241 60.884Z" fill="#26272B"/>
<path d="M327.442 36.944H319.69L331.432 67.439L330.805 69.263C330.615 69.833 330.406 70.27 330.178 70.574C329.95 70.878 329.665 71.087 329.323 71.201C328.981 71.353 328.506 71.467 327.898 71.543C327.632 71.581 327.328 71.6 326.986 71.6H322.312V77.984H327.784C329.532 77.984 331.033 77.737 332.287 77.243C333.541 76.749 334.624 75.951 335.536 74.849C336.448 73.747 337.246 72.303 337.93 70.517L350.698 36.944H342.946L336.505 56.381C336.239 57.179 336.068 58.091 335.992 59.117V59.801C335.992 60.105 335.935 60.352 335.821 60.542C335.745 60.694 335.574 60.77 335.308 60.77C335.042 60.77 334.852 60.675 334.738 60.485C334.662 60.295 334.624 60.067 334.624 59.801C334.624 59.117 334.586 58.509 334.51 57.977C334.472 57.445 334.358 56.913 334.168 56.381L327.442 36.944Z" fill="#26272B"/>
</svg>
