<svg xmlns="http://www.w3.org/2000/svg" id="Group_30952" width="256" height="256" viewBox="0 0 256 256" style="position: absolute; top: 0px; left: 0px; width: 100%; height: 100%;"><defs id="defs10"><linearGradient id="linear-gradient" x1=".843" x2=".206" y1=".135" y2=".886" gradientUnits="objectBoundingBox"><stop offset="0" stop-color="#b6509e" id="stop2"/><stop offset="1" stop-color="#2ebac6" id="stop4"/></linearGradient><linearGradient id="linear-gradient-2" x1=".907" x2=".163" y1=".227" y2=".853"/></defs><g id="Group_29109"><path id="Subtraction_108" fill="url(#linear-gradient)" d="M128 256a128.976 128.976 0 0 1-25.8-2.6 127.309 127.309 0 0 1-45.77-19.261 128.366 128.366 0 0 1-46.375-56.315A127.357 127.357 0 0 1 2.6 153.8a129.251 129.251 0 0 1 0-51.593 127.31 127.31 0 0 1 19.26-45.77 128.372 128.372 0 0 1 56.317-46.378A127.33 127.33 0 0 1 102.2 2.6a129.244 129.244 0 0 1 51.593 0 127.308 127.308 0 0 1 45.77 19.26 128.367 128.367 0 0 1 46.375 56.316A127.343 127.343 0 0 1 253.4 102.2a129.248 129.248 0 0 1 0 51.593 127.3 127.3 0 0 1-19.26 45.77 128.382 128.382 0 0 1-56.316 46.375A127.4 127.4 0 0 1 153.8 253.4 128.977 128.977 0 0 1 128 256zm0-242.287a115.145 115.145 0 0 0-23.033 2.322A113.657 113.657 0 0 0 64.1 33.232a114.622 114.622 0 0 0-41.4 50.283 113.7 113.7 0 0 0-6.659 21.452 115.4 115.4 0 0 0 0 46.065 113.66 113.66 0 0 0 17.2 40.866 114.627 114.627 0 0 0 50.282 41.407 113.75 113.75 0 0 0 21.453 6.658 115.381 115.381 0 0 0 46.065 0 113.609 113.609 0 0 0 40.866-17.2 114.622 114.622 0 0 0 41.393-50.278 113.741 113.741 0 0 0 6.659-21.453 115.4 115.4 0 0 0 0-46.065 113.662 113.662 0 0 0-17.2-40.865A114.619 114.619 0 0 0 172.485 22.7a113.74 113.74 0 0 0-21.453-6.659A115.145 115.145 0 0 0 128 13.714z"/></g><svg xmlns="http://www.w3.org/2000/svg" width="206" height="206" viewBox="0 0 125 125" fill="none" x="25" y="25"><path d="M62.5 123.728c33.815 0 61.227-27.412 61.227-61.227S96.315 1.273 62.5 1.273 1.272 28.686 1.272 62.501s27.413 61.227 61.228 61.227Z" fill="#fff"/><path d="M80.208 75.712 97.53 65.71a2.978 2.978 0 0 0 1.485-2.575V43.132c0-1.057-.57-2.045-1.485-2.575L80.208 30.555a2.983 2.983 0 0 0-2.973 0L59.913 40.557a2.981 2.981 0 0 0-1.485 2.575V78.88L46.28 85.892 34.133 78.88V64.852L46.28 57.84l8.013 4.625v-9.41l-6.528-3.768a2.978 2.978 0 0 0-2.972 0L27.47 59.29a2.978 2.978 0 0 0-1.485 2.575v20.002c0 1.058.57 2.045 1.485 2.575l17.323 10.003a2.99 2.99 0 0 0 2.972 0l17.323-10a2.981 2.981 0 0 0 1.485-2.575V46.122l.22-.125L78.72 39.11l12.148 7.012V60.15L78.72 67.162l-8-4.62v9.41l6.515 3.763a2.99 2.99 0 0 0 2.973 0v-.003Z" fill="url(#a)"/><defs><linearGradient id="a" x1="32.19" y1="84.6" x2="94.96" y2="38.83" gradientUnits="userSpaceOnUse"><stop stop-color="#A726C1"/><stop offset=".88" stop-color="#803BDF"/><stop offset="1" stop-color="#7B3FE4"/></linearGradient></defs></svg></svg>