<svg width="34" height="34" viewBox="0 0 34 34" fill="none" xmlns="http://www.w3.org/2000/svg">
<path d="M17 0L31.0462 6.46106H32.9375C33.2193 6.46106 33.4895 6.57265 33.6888 6.77129C33.8881 6.96993 34 7.23933 34 7.52025V11.757C34 12.0379 33.8881 12.3073 33.6888 12.506C33.4895 12.7046 33.2193 12.8162 32.9375 12.8162H31.875V27.6449C32.112 27.6449 32.3422 27.724 32.5289 27.8695C32.7157 28.0149 32.8483 28.2185 32.9056 28.4477L33.9681 32.6845C34.0072 32.8406 34.0101 33.0035 33.9765 33.1609C33.943 33.3183 33.8739 33.466 33.7746 33.5928C33.6752 33.7196 33.5482 33.8221 33.4032 33.8927C33.2582 33.9633 33.0989 34 32.9375 34H1.0625C0.901109 34 0.741849 33.9633 0.596807 33.8927C0.451766 33.8221 0.324755 33.7196 0.225415 33.5928C0.126076 33.466 0.0570178 33.3183 0.0234831 33.1609C-0.0100516 33.0035 -0.00718168 32.8406 0.031875 32.6845L1.09438 28.4477C1.15173 28.2185 1.28432 28.0149 1.47107 27.8695C1.65782 27.724 1.888 27.6449 2.125 27.6449V12.8162H1.0625C0.780707 12.8162 0.510456 12.7046 0.311199 12.506C0.111942 12.3073 0 12.0379 0 11.757V7.52025C0 7.23933 0.111942 6.96993 0.311199 6.77129C0.510456 6.57265 0.780707 6.46106 1.0625 6.46106H2.95375L17 0ZM8.024 6.46106H25.9739L17 2.33022L8.024 6.46106ZM4.25 12.8162V27.6449H6.375V12.8162H4.25ZM8.5 12.8162V27.6449H13.8125V12.8162H8.5ZM15.9375 12.8162V27.6449H18.0625V12.8162H15.9375ZM20.1875 12.8162V27.6449H25.5V12.8162H20.1875ZM27.625 12.8162V27.6449H29.75V12.8162H27.625ZM31.875 10.6978V8.57944H2.125V10.6978H31.875ZM31.0462 29.7632H2.95375L2.4225 31.8816H31.5775L31.0462 29.7632Z" fill="white"/>
</svg>
