<?xml version="1.0" standalone="no"?>
<!DOCTYPE svg PUBLIC "-//W3C//DTD SVG 20010904//EN"
 "http://www.w3.org/TR/2001/REC-SVG-20010904/DTD/svg10.dtd">
<svg version="1.0" xmlns="http://www.w3.org/2000/svg"
 width="963.000000pt" height="1280.000000pt" viewBox="0 0 963.000000 1280.000000"
 preserveAspectRatio="xMidYMid meet">
<metadata>
Created by potrace 1.15, written by Peter Selinger 2001-2017
</metadata>
<g transform="translate(0.000000,1280.000000) scale(0.100000,-0.100000)"
fill="#000000" stroke="none">
<path d="M945 12789 c-360 -52 -686 -293 -841 -623 -41 -87 -79 -218 -93 -320
-8 -54 -11 -1811 -11 -5900 l0 -5823 432 -7 c238 -3 687 -11 998 -16 744 -13
1603 -27 2410 -41 360 -5 849 -14 1085 -18 237 -4 432 -6 435 -4 2 2 6 1525 8
3384 l4 3379 527 0 c559 0 587 -2 679 -49 72 -37 139 -108 179 -189 l38 -76 5
-2670 6 -2671 21 -90 c101 -431 414 -785 845 -956 175 -70 295 -92 488 -93
195 -1 297 15 473 74 481 161 853 523 962 936 9 32 21 104 27 159 11 96 9 110
-26 330 -46 278 -252 1452 -411 2335 -82 457 -132 766 -171 1060 l-54 415 0
1945 c0 1188 -4 1999 -10 2083 -24 335 -123 586 -326 827 -55 66 -479 491
-1570 1573 l-321 319 -52 -22 c-28 -13 -83 -46 -122 -75 -68 -51 -289 -243
-289 -251 0 -13 44 -86 82 -136 78 -101 311 -358 562 -618 l247 -255 -8 -540
c-4 -297 -8 -670 -8 -830 0 -269 2 -296 23 -375 72 -274 250 -494 500 -623
159 -82 273 -106 516 -108 l168 -2 -6 -181 c-3 -99 -11 -334 -16 -521 -6 -187
-15 -484 -20 -660 -20 -655 -32 -1057 -38 -1285 l-7 -235 62 -505 c64 -532 91
-684 529 -3025 83 -444 84 -517 9 -682 -42 -91 -81 -147 -147 -213 -105 -103
-232 -174 -377 -211 -116 -29 -274 -24 -381 13 -225 78 -404 253 -455 444 -14
53 -16 326 -14 2704 1 2397 -1 2653 -15 2726 -80 401 -362 730 -736 857 -176
60 -173 60 -838 64 -567 4 -612 6 -608 21 38 126 66 1525 66 3280 0 963 -1
1008 -20 1101 -79 388 -355 698 -734 825 -173 58 -113 56 -1931 55 -919 -1
-1697 -5 -1730 -10z m3461 -821 c59 -31 108 -84 138 -147 21 -46 21 -47 24
-1416 2 -986 0 -1387 -8 -1429 -19 -100 -74 -170 -170 -215 l-55 -26 -1655 0
-1655 0 -53 24 c-31 14 -70 43 -97 73 -81 90 -76 -30 -73 1553 l3 1410 23 43
c33 61 95 118 155 141 51 20 75 20 1712 18 l1660 -2 51 -27z m3525 -2154 c127
-30 152 -40 187 -69 48 -41 82 -97 113 -185 22 -63 23 -77 27 -468 l3 -403
-28 7 c-296 72 -484 230 -513 430 -5 38 -10 219 -10 403 l0 333 38 -7 c20 -3
103 -22 183 -41z"/>
</g>
</svg>
