<svg version="1.0" xmlns="http://www.w3.org/2000/svg"
 width="400.000000pt" height="400.000000pt" viewBox="0 0 400.000000 400.000000"
 preserveAspectRatio="xMidYMid meet">

<g
fill="#fff" stroke="none">
<g transform="translate(0.000000,400.000000) scale(0.100000,-0.100000)"
fill="rgb(111, 65, 216)" stroke="none">

<path d="M1820 3989 c-519 -46 -1010 -302 -1348 -704 -446 -531 -584 -1251
-367 -1912 197 -599 668 -1070 1267 -1267 413 -136 843 -137 1255 -1 599 197
1070 668 1267 1267 136 413 137 843 1 1255 -290 880 -1149 1444 -2075 1362z
m285 -648 c106 -49 1005 -567 1038 -599 21 -21 48 -55 60 -77 22 -40 22 -43
22 -655 0 -612 0 -615 -22 -655 -12 -22 -39 -56 -60 -77 -37 -36 -984 -579
-1053 -604 -46 -17 -128 -17 -176 0 -68 24 -1017 567 -1057 605 -21 20 -48 54
-60 76 -22 40 -22 43 -22 655 0 612 0 615 22 655 12 22 39 57 60 77 34 33 900
533 1028 594 63 30 161 32 220 5z"/>
<path d="M1955 3164 c-307 -169 -956 -542 -972 -561 -23 -24 -23 -28 -23 -294
0 -148 2 -269 5 -269 3 0 22 10 43 23 20 13 57 32 82 43 43 18 84 19 895 24
972 6 877 -4 992 103 l63 59 0 144 c0 134 -1 144 -22 167 -28 30 -972 566
-1008 573 -14 2 -38 -3 -55 -12z m-138 -465 c15 -5 41 -22 56 -37 53 -50 57
-68 57 -242 l0 -160 -95 0 -95 0 0 135 0 135 -110 0 -110 0 0 -135 0 -135 -95
0 -95 0 0 153 c0 193 15 233 105 280 24 13 64 16 192 17 91 0 174 -5 190 -11z
m751 -8 c86 -44 102 -87 102 -281 l0 -150 -95 0 -95 0 0 135 0 135 -110 0
-110 0 0 -135 0 -135 -95 0 -95 0 0 160 c0 174 4 192 57 242 44 42 67 47 241
47 141 1 168 -2 200 -18z"/>
<path d="M3023 2028 c-7 -8 -46 -30 -85 -49 l-73 -34 -855 -5 -855 -5 -45 -27
c-25 -14 -69 -51 -98 -81 l-52 -56 0 -165 c0 -157 1 -166 23 -189 12 -13 238
-146 502 -296 365 -205 489 -271 514 -271 26 0 152 67 524 278 269 152 496
286 503 298 20 29 16 626 -3 602z m-1503 -353 l0 -135 110 0 109 0 3 133 3
132 93 3 92 3 0 -163 c0 -151 -2 -166 -23 -200 -51 -84 -107 -101 -304 -96
-156 3 -181 12 -237 81 l-31 39 -3 169 -4 169 96 0 96 0 0 -135z m738 -2 l3
-133 109 0 110 0 0 135 0 135 95 0 95 0 0 -152 c0 -172 -11 -212 -69 -261 -46
-38 -90 -47 -242 -47 -125 0 -139 2 -187 26 -37 19 -59 38 -77 68 -24 41 -25
50 -25 205 l0 162 93 -3 92 -3 3 -132z"/>
</g>
</g>
</svg>
