<?xml version="1.0" standalone="no"?>
<!DOCTYPE svg PUBLIC "-//W3C//DTD SVG 20010904//EN"
 "http://www.w3.org/TR/2001/REC-SVG-20010904/DTD/svg10.dtd">
<svg version="1.0" xmlns="http://www.w3.org/2000/svg"
 width="784.000000pt" height="784.000000pt" viewBox="0 0 784.000000 784.000000"
 preserveAspectRatio="xMidYMid meet">
<metadata>
Created by potrace 1.14, written by Peter Selinger 2001-2017
</metadata>
<g transform="translate(0.000000,784.000000) scale(0.100000,-0.100000)"
fill="#000000" stroke="none">
<path d="M3895 7811 c-6 -5 -30 -20 -55 -34 -121 -67 -286 -162 -290 -167 -3
-3 -22 -14 -42 -25 -42 -23 -185 -104 -210 -120 -9 -5 -29 -17 -45 -26 -15 -8
-102 -58 -193 -111 -91 -52 -190 -109 -220 -127 -30 -17 -62 -36 -70 -41 -8
-6 -22 -13 -30 -17 -8 -4 -32 -17 -53 -31 -22 -13 -60 -35 -85 -49 -55 -31
-100 -56 -133 -75 -13 -7 -26 -15 -29 -18 -3 -3 -21 -14 -40 -24 -19 -10 -105
-59 -190 -109 -85 -49 -175 -101 -200 -115 -25 -14 -57 -33 -72 -43 -14 -11
-29 -19 -32 -19 -4 0 -36 -18 -72 -40 -36 -22 -68 -40 -70 -40 -2 0 -33 -18
-69 -40 -36 -22 -70 -40 -75 -40 -6 0 -10 -4 -10 -10 0 -5 -4 -10 -9 -10 -5 0
-78 -40 -163 -89 -308 -177 -343 -198 -358 -204 -8 -4 -28 -16 -45 -27 -16
-11 -37 -23 -45 -27 -8 -3 -17 -9 -20 -12 -3 -3 -21 -14 -40 -25 -61 -33 -123
-68 -180 -101 -30 -18 -88 -52 -127 -74 l-73 -42 0 -1950 c0 -1307 3 -1948 10
-1944 6 3 13 -1 16 -9 3 -9 11 -13 17 -9 7 4 8 0 3 -12 -6 -16 -4 -16 11 -4
15 12 16 12 11 -2 -5 -13 -2 -16 13 -12 11 3 19 0 19 -6 0 -7 4 -9 10 -6 5 3
10 1 10 -4 0 -6 7 -11 15 -11 8 0 15 -5 15 -11 0 -5 4 -8 9 -5 5 3 14 -1 21
-9 7 -8 19 -15 26 -15 8 0 14 -5 14 -11 0 -5 4 -8 9 -5 5 4 11 2 13 -3 1 -4
27 -20 56 -35 28 -14 52 -31 52 -37 0 -5 4 -7 10 -4 13 8 52 -19 42 -30 -4 -5
-2 -5 4 -2 7 4 28 -4 47 -17 19 -13 38 -22 41 -18 3 3 6 0 6 -6 0 -7 7 -12 15
-12 8 0 15 -4 15 -10 0 -5 8 -10 18 -10 10 0 28 -9 40 -20 12 -11 28 -20 37
-20 8 0 15 -4 15 -10 0 -5 7 -10 15 -10 8 0 15 -4 15 -10 0 -5 8 -10 18 -10
10 0 27 -8 38 -17 11 -10 26 -19 34 -21 8 -2 17 -8 18 -13 2 -5 10 -9 18 -9 8
0 14 -4 14 -10 0 -5 9 -10 20 -10 10 0 23 -8 29 -17 5 -10 13 -18 18 -18 4 0
7 -4 5 -8 -1 -5 2 -6 7 -3 10 7 61 -13 61 -24 0 -3 16 -12 35 -20 19 -8 35
-17 35 -22 0 -4 7 -8 15 -8 8 0 15 -5 15 -11 0 -5 4 -8 8 -5 12 7 63 -29 55
-39 -5 -4 -2 -5 5 -1 11 7 80 -31 120 -64 6 -6 12 -8 12 -4 0 4 8 0 18 -9 10
-10 22 -14 25 -10 4 3 7 1 7 -5 0 -7 7 -12 15 -12 8 0 15 -4 15 -10 0 -5 6
-10 14 -10 8 0 22 -7 31 -16 9 -9 18 -14 22 -11 6 7 32 -15 28 -23 -2 -3 6 -7
17 -7 12 -1 24 -6 27 -10 3 -4 20 -15 36 -23 17 -8 36 -22 43 -30 8 -8 11 -9
7 -3 -4 9 -1 11 9 7 9 -3 16 -12 16 -20 0 -8 3 -13 8 -12 14 4 52 -13 52 -23
0 -6 4 -8 9 -4 5 3 16 -2 24 -10 9 -8 20 -15 26 -15 6 0 11 -4 11 -10 0 -5 8
-10 18 -10 10 0 28 -9 39 -19 12 -11 24 -17 27 -14 3 4 6 1 6 -6 0 -7 5 -9 10
-6 6 3 10 2 10 -3 0 -5 22 -20 49 -33 27 -13 47 -27 45 -31 -3 -5 -2 -7 3 -6
16 4 53 -14 48 -23 -3 -5 1 -6 9 -3 9 3 16 1 16 -4 0 -6 16 -16 35 -23 19 -7
35 -16 35 -20 0 -7 24 -18 45 -20 6 0 14 -7 18 -15 4 -8 14 -14 21 -14 8 0 16
-7 20 -15 3 -8 12 -12 21 -9 8 3 15 2 15 -4 0 -5 15 -16 33 -23 39 -16 58 -34
49 -45 -4 -5 -1 -4 7 3 14 12 19 10 63 -32 11 -11 18 -14 14 -7 -10 18 1 15
26 -8 13 -10 25 -19 28 -18 14 4 50 -24 44 -34 -4 -6 -3 -8 2 -5 11 6 75 -22
86 -38 4 -5 13 -10 20 -10 7 -1 12 -7 10 -14 -1 -7 2 -10 7 -6 6 3 27 -5 48
-17 21 -13 55 -32 75 -43 20 -10 34 -23 31 -28 -3 -6 -1 -7 5 -3 6 3 17 0 25
-8 8 -8 17 -12 21 -9 3 4 6 1 6 -6 0 -7 4 -9 10 -6 5 3 10 1 10 -4 0 -6 6 -11
13 -11 7 0 23 -9 35 -20 12 -12 22 -17 22 -13 0 4 6 1 13 -7 7 -8 20 -16 31
-18 10 -2 28 -12 39 -22 11 -11 23 -17 27 -15 5 3 10 -2 14 -10 3 -8 14 -15
24 -15 10 0 27 -8 38 -18 10 -10 22 -19 27 -20 16 -4 72 -35 85 -48 7 -8 18
-12 23 -9 5 4 9 1 9 -5 0 -6 4 -9 8 -6 5 3 14 -4 22 -14 8 -10 18 -16 22 -13
5 3 16 -3 24 -13 9 -11 13 -13 9 -4 -4 10 -2 9 8 -2 8 -10 17 -15 20 -11 4 3
7 1 7 -5 0 -22 24 -12 135 53 61 36 118 68 128 71 9 3 17 9 17 12 0 4 20 16
45 27 25 11 45 23 45 28 0 4 4 7 10 7 5 0 31 13 57 28 27 16 98 59 160 95 61
37 116 67 122 67 6 0 11 3 11 8 0 4 15 13 33 21 17 8 34 17 37 21 3 4 30 20
60 37 55 30 199 113 298 172 29 17 57 31 62 31 6 0 10 5 10 10 0 6 5 10 10 10
6 0 106 55 223 123 116 68 320 186 452 262 132 75 257 148 277 161 21 13 40
24 42 24 5 0 200 113 226 130 8 6 23 13 33 16 9 4 17 11 17 16 0 5 4 7 9 4 5
-3 14 1 21 9 7 8 16 15 21 15 5 0 32 15 61 33 29 18 64 38 78 45 14 6 32 16
40 22 12 8 222 128 449 258 25 13 67 38 93 53 27 16 53 29 58 29 6 0 10 5 10
10 0 6 7 10 15 10 8 0 15 3 16 8 1 4 2 878 3 1942 1 1215 -2 1940 -8 1948 -8
11 -222 137 -421 247 -30 17 -60 36 -67 43 -7 7 -16 12 -21 12 -5 0 -46 22
-91 49 -125 75 -149 89 -181 106 -16 8 -46 25 -65 36 -74 46 -136 80 -152 86
-10 3 -18 9 -18 14 0 5 -4 9 -10 9 -8 0 -103 54 -350 199 -25 14 -58 32 -75
41 -16 8 -32 17 -35 20 -13 14 -61 40 -75 40 -8 0 -15 4 -15 8 0 5 -18 17 -40
28 -22 10 -40 22 -40 27 0 4 -4 7 -10 7 -5 0 -47 22 -92 49 -46 27 -100 58
-120 70 -102 57 -366 209 -428 246 -120 72 -146 86 -162 92 -10 3 -18 9 -18
14 0 5 -5 9 -11 9 -6 0 -48 23 -95 50 -47 28 -89 50 -94 50 -6 0 -10 5 -10 10
0 6 -4 10 -10 10 -5 0 -33 14 -62 31 -29 18 -66 39 -83 49 -16 9 -137 78 -267
153 -130 76 -238 137 -240 137 -2 0 -8 -4 -13 -9z"/>
</g>
</svg>
